<svg width="25" height="38" viewBox="0 0 25 38" fill="none" xmlns="http://www.w3.org/2000/svg">
<g clip-path="url(#clip0_288_234)">
<path d="M6.25119 37.5C9.7005 37.5 12.4999 34.7 12.4999 31.25V25H6.25119C2.80188 25 0.00244141 27.8 0.00244141 31.25C0.00244141 34.7 2.80188 37.5 6.25119 37.5Z" fill="#0ACF83"/>
<path d="M0.00244141 18.75C0.00244141 15.3 2.80188 12.5 6.25119 12.5H12.4999V25H6.25119C2.80188 25 0.00244141 22.2 0.00244141 18.75Z" fill="#A259FF"/>
<path d="M0.0098877 6.25C0.0098877 2.8 2.80933 0 6.25864 0H12.5074V12.5H6.25864C2.80933 12.5 0.0098877 9.7 0.0098877 6.25Z" fill="#F24E1E"/>
<path d="M12.5 0H18.7487C22.1981 0 24.9975 2.8 24.9975 6.25C24.9975 9.7 22.1981 12.5 18.7487 12.5H12.5V0Z" fill="#FF7262"/>
<path d="M24.9975 18.75C24.9975 22.2 22.1981 25 18.7487 25C15.2994 25 12.5 22.2 12.5 18.75C12.5 15.3 15.2994 12.5 18.7487 12.5C22.1981 12.5 24.9975 15.3 24.9975 18.75Z" fill="#1ABCFE"/>
</g>
<defs>
<clipPath id="clip0_288_234">
<rect width="25" height="37.5" fill="white"/>
</clipPath>
</defs>
</svg>
