<svg width="30" height="31" viewBox="0 0 30 31" fill="none" xmlns="http://www.w3.org/2000/svg">
<path d="M26.7906 6.3121C24.7546 3.76953 21.8871 1.93146 18.7164 1.13647C18.4811 1.07746 18.2419 1.21727 18.1821 1.44853C18.1221 1.67985 18.2641 1.91515 18.4993 1.97411C18.6373 2.00868 18.7745 2.04614 18.9113 2.08487C18.9 2.69867 18.8689 3.29052 18.818 3.85003C18.2818 4.16624 16.6453 5.09285 15 5.63652C13.357 5.09349 11.7186 4.16624 11.182 3.84992C11.1313 3.2915 11.1002 2.7008 11.0889 2.0881C12.3557 1.73051 13.6753 1.54448 15 1.54448C15.4546 1.54448 15.9133 1.56598 16.3634 1.60834C16.6053 1.63139 16.8196 1.45689 16.8427 1.21929C16.8659 0.981625 16.6887 0.770588 16.4471 0.747825C15.9693 0.702875 15.4824 0.680054 15 0.680054C12.5923 0.680054 10.1986 1.25467 8.07756 2.34172C6.0252 3.39362 4.21975 4.92527 2.85639 6.771C2.71377 6.96417 2.75736 7.23445 2.95365 7.37472C3.03164 7.43045 3.12205 7.4573 3.21158 7.4573C3.34746 7.4573 3.48146 7.39552 3.56742 7.27911C4.26457 6.33527 5.08529 5.4796 5.99848 4.73521C6.48979 5.08784 6.95273 5.44364 7.37918 5.79702C7.33482 6.41082 7.16736 8.26266 6.67729 9.89776C5.28264 10.91 3.57059 11.6981 2.99936 11.949C2.53898 11.6887 2.06467 11.3984 1.58414 11.0831C1.81594 10.3934 2.10334 9.71894 2.4484 9.06266C2.55984 8.85065 2.47547 8.58988 2.2599 8.48021C2.04428 8.3706 1.77914 8.45353 1.6677 8.6656C0.576738 10.7409 0 13.081 0 15.433C0 19.3736 1.56029 23.0784 4.39336 25.8649C7.22654 28.6513 10.9934 30.1859 15 30.1859C19.0066 30.1859 22.7735 28.6513 25.6066 25.8649C28.4397 23.0784 30 19.3736 30 15.433C30 12.0881 28.8902 8.93409 26.7906 6.3121ZM26.1001 6.84696C27.133 8.1368 27.9108 9.56363 28.4186 11.0813C27.9373 11.3971 27.462 11.6882 27.0006 11.9491C26.4296 11.6984 24.7192 10.9114 23.3227 9.89776C22.8326 8.2626 22.6651 6.41082 22.6208 5.79702C23.047 5.44381 23.5099 5.08813 24.001 4.73556C24.7718 5.36221 25.4774 6.06931 26.1001 6.84696ZM15.4395 6.40183C17.4749 5.7017 19.385 4.52406 19.4692 4.47185C19.5837 4.40079 19.6586 4.28173 19.672 4.14918C19.7294 3.58356 19.7668 2.98497 19.784 2.36345C21.0283 2.80586 22.2062 3.42157 23.2784 4.18532C22.7805 4.54936 22.3123 4.9164 21.8817 5.28055C21.7791 5.3674 21.7228 5.49602 21.7293 5.62909C21.7341 5.72723 21.8496 7.95959 22.4402 10.0079C21.1077 11.0846 19.7527 11.9863 19.2272 12.3269C18.6408 11.9819 17.0811 11.107 15.4394 10.5423V6.40183H15.4395ZM6.71947 4.1837C7.28027 3.78313 7.8702 3.42278 8.48373 3.1083C9.0426 2.82188 9.62215 2.57471 10.216 2.36517C10.2333 2.98618 10.2707 3.58414 10.3279 4.14913C10.3413 4.28167 10.4162 4.40073 10.5308 4.47185C10.6149 4.52406 12.5251 5.7017 14.5605 6.40183V10.5422C12.9188 11.1069 11.359 11.9818 10.7727 12.3269C10.2472 11.9863 8.89225 11.0846 7.55971 10.0079C8.15033 7.95953 8.2657 5.72723 8.27057 5.62903C8.27707 5.49597 8.22082 5.36734 8.11816 5.28049C7.68703 4.91576 7.21811 4.54821 6.71947 4.1837ZM0.878906 15.433C0.878906 14.2402 1.02938 13.0767 1.32504 11.9508C1.81219 12.2638 2.2926 12.5514 2.75871 12.8086C2.82527 12.8454 2.89939 12.864 2.97381 12.864C3.03146 12.864 3.0893 12.8528 3.14379 12.8303C3.2352 12.7926 5.29424 11.9364 7.04004 10.7066C8.41553 11.815 9.77613 12.7178 10.3031 13.0581C10.2434 13.7546 10.113 15.7103 10.3043 17.8361C9.78844 18.2112 8.3884 19.2585 7.01824 20.5366C5.27719 19.3152 3.23479 18.466 3.14379 18.4284C3.01975 18.3773 2.87889 18.3847 2.76111 18.4488C2.73469 18.4632 2.20236 18.7537 1.41768 19.2525C1.06301 18.0259 0.878906 16.7434 0.878906 15.433ZM10.3283 27.1069C10.3253 27.134 10.2681 27.6724 10.2326 28.5138C9.08619 28.1104 7.99676 27.5596 6.98736 26.8726C7.67713 26.355 8.09912 25.9947 8.12033 25.9764C8.2217 25.8896 8.27713 25.7618 8.27062 25.6297C8.2698 25.6133 8.25018 25.2205 8.18525 24.6138C8.15982 24.3764 7.94373 24.2041 7.70221 24.2292C7.46086 24.2542 7.28578 24.4669 7.31115 24.7043C7.3459 25.0287 7.36723 25.2916 7.37936 25.4609C7.17123 25.6318 6.7749 25.9497 6.25125 26.3362C5.82152 26.0013 5.40838 25.6406 5.01486 25.2536C3.51094 23.7744 2.38816 22.0204 1.69477 20.1066C2.28205 19.7273 2.75391 19.4505 3.00006 19.3098C3.57152 19.5608 5.28123 20.3475 6.67729 21.3609C6.79764 21.7624 6.90715 22.2056 7.00336 22.6806C7.04502 22.8862 7.22854 23.0285 7.43391 23.0285C7.46232 23.0285 7.49127 23.0257 7.52022 23.02C7.75828 22.9734 7.91279 22.7458 7.86539 22.5117C7.77287 22.0548 7.66805 21.6251 7.55326 21.2291C8.86395 19.9982 10.2499 18.9539 10.788 18.5599C11.3858 18.9109 12.9329 19.7758 14.5606 20.3356V24.8568C12.5252 25.5569 10.615 26.7346 10.5309 26.7868C10.417 26.8575 10.3424 26.9754 10.3283 27.1069ZM15 29.3215C13.6624 29.3215 12.3534 29.1389 11.1018 28.7874C11.1234 28.1593 11.16 27.6696 11.1826 27.4083C11.7193 27.0918 13.3552 26.1656 15 25.6221C16.6423 26.1649 18.2801 27.0917 18.8174 27.4084C18.84 27.6697 18.8766 28.1593 18.8983 28.7873C17.6466 29.1389 16.3376 29.3215 15 29.3215ZM19.7674 28.5138C19.7319 27.6723 19.6747 27.134 19.6717 27.1069C19.6576 26.9753 19.5829 26.8574 19.4692 26.7869C19.385 26.7347 17.4749 25.557 15.4395 24.8569V20.3357C17.0671 19.7758 18.6143 18.911 19.212 18.56C19.7498 18.9536 21.1348 19.997 22.4466 21.2289C21.8504 23.2832 21.7342 25.5312 21.7294 25.6296C21.7229 25.7617 21.7783 25.8895 21.8797 25.9764C21.9009 25.9945 22.3229 26.355 23.0127 26.8725C22.0033 27.5596 20.9139 28.1105 19.7674 28.5138ZM24.9851 25.2537C24.5916 25.6407 24.1785 26.0014 23.7488 26.3363C23.2252 25.9499 22.829 25.632 22.6208 25.4611C22.6653 24.8466 22.8328 22.9955 23.3227 21.361C24.717 20.3491 26.4284 19.5612 27.0002 19.31C27.246 19.4504 27.7172 19.7267 28.3053 20.1067C27.6118 22.0204 26.4891 23.7745 24.9851 25.2537ZM27.2389 18.4488C27.1212 18.3848 26.9802 18.3774 26.8563 18.4285C26.7653 18.466 24.7229 19.3152 22.9818 20.5367C21.611 19.258 20.2104 18.2104 19.695 17.8356C19.7315 17.4289 19.7589 17.0055 19.7753 16.5712C19.7842 16.3326 19.595 16.132 19.3524 16.1232C19.1103 16.1137 18.9059 16.3005 18.897 16.5391C18.8808 16.9671 18.8542 17.3849 18.818 17.7841C18.2818 18.1003 16.6453 19.0268 15 19.5706C13.357 19.0275 11.7186 18.1003 11.182 17.784C10.9924 15.6968 11.1285 13.7264 11.1827 13.0936C11.7196 12.777 13.3554 11.851 15 11.3075C16.6424 11.8504 18.2803 12.7772 18.8174 13.0938C18.8381 13.3321 18.8704 13.7596 18.8923 14.3081C18.9018 14.5466 19.105 14.7325 19.3486 14.723C19.5912 14.7136 19.78 14.5127 19.7705 14.2741C19.7489 13.7333 19.718 13.3117 19.6965 13.0583C20.2233 12.7181 21.5842 11.8151 22.9599 10.7067C24.7058 11.9364 26.7648 12.7927 26.8562 12.8304C26.9108 12.8529 26.9685 12.864 27.0262 12.864C27.1006 12.864 27.1747 12.8455 27.2413 12.8087C27.7082 12.5509 28.1894 12.2629 28.6772 11.9495C28.9709 13.0732 29.121 14.2402 29.121 15.4331C29.121 16.7435 28.9369 18.0259 28.5823 19.2526C27.7976 18.7537 27.2654 18.4632 27.2389 18.4488Z" fill="#E5E5E5"/>
</svg>
