<svg width="61" height="61" viewBox="0 0 61 61" fill="none" xmlns="http://www.w3.org/2000/svg">
<g filter="url(#filter0_d_17_37)">
<path d="M4.21094 33.1603C5.96561 33.0793 7.45033 32.4044 8.6651 31.1357C9.87987 29.8669 10.5008 28.3552 10.5008 26.6005C10.5008 28.3552 11.0946 29.8669 12.3094 31.1357C13.5242 32.4044 15.0089 33.0793 16.7636 33.1603C15.0089 33.2413 13.5242 33.9162 12.3094 35.1849C11.7221 35.783 11.2597 36.4921 10.9492 37.2707C10.6387 38.0493 10.4862 38.8819 10.5008 39.7201C10.5008 37.9654 9.90687 36.4537 8.6651 35.1849C7.45033 33.9162 5.96561 33.2413 4.21094 33.1603ZM10.5008 13.724C13.9021 13.562 16.7906 12.2392 19.1661 9.7557C21.5417 7.27217 22.7295 4.32972 22.7295 0.901367C22.7295 4.32972 23.9172 7.27217 26.2928 9.7557C28.6683 12.2392 31.5568 13.535 34.9852 13.724C32.7446 13.8319 30.693 14.4528 28.8033 15.6406C26.9407 16.8014 25.4559 18.3671 24.3492 20.3107C23.2694 22.2544 22.7295 24.333 22.7295 26.6005C22.7295 23.1722 21.5417 20.2027 19.1661 17.7192C16.7906 15.2087 13.9021 13.8859 10.5008 13.724ZM19.4631 42.7975C22.0276 42.6895 24.2142 41.6907 25.9958 39.8281C27.7775 37.9654 28.6683 35.7518 28.6683 33.1603C28.6683 35.7518 29.5592 37.9654 31.3408 39.8281C33.1225 41.6907 35.2821 42.6895 37.8466 42.7975C35.2821 42.9055 33.1225 43.9043 31.3408 45.7669C29.5592 47.6296 28.6683 49.8432 28.6683 52.4347C28.6683 49.8432 27.7775 47.6296 25.9958 45.7669C24.293 43.9572 21.9462 42.8905 19.4631 42.7975ZM37.8466 30.0019C40.4111 29.8939 42.5707 28.8951 44.3524 27.0325C46.1341 25.1698 46.9979 22.9562 46.9979 20.3377C46.9979 22.9292 47.8887 25.1428 49.6704 27.0055C51.4521 28.8681 53.6386 29.8669 56.2032 29.9749C53.6386 30.0829 51.4521 31.0817 49.6704 32.9443C47.8887 34.807 46.9979 37.0206 46.9979 39.6121C46.9979 37.0206 46.1071 34.807 44.3524 32.9443C42.5707 31.1087 40.4111 30.1099 37.8466 30.0019Z" fill="white"/>
</g>
<defs>
<filter id="filter0_d_17_37" x="0.210938" y="0.901367" width="59.9922" height="59.5332" filterUnits="userSpaceOnUse" color-interpolation-filters="sRGB">
<feFlood flood-opacity="0" result="BackgroundImageFix"/>
<feColorMatrix in="SourceAlpha" type="matrix" values="0 0 0 0 0 0 0 0 0 0 0 0 0 0 0 0 0 0 127 0" result="hardAlpha"/>
<feOffset dy="4"/>
<feGaussianBlur stdDeviation="2"/>
<feComposite in2="hardAlpha" operator="out"/>
<feColorMatrix type="matrix" values="0 0 0 0 0 0 0 0 0 0 0 0 0 0 0 0 0 0 0.25 0"/>
<feBlend mode="normal" in2="BackgroundImageFix" result="effect1_dropShadow_17_37"/>
<feBlend mode="normal" in="SourceGraphic" in2="effect1_dropShadow_17_37" result="shape"/>
</filter>
</defs>
</svg>
