<svg width="63" height="97" viewBox="0 0 63 97" fill="none" xmlns="http://www.w3.org/2000/svg">
<circle cx="30" cy="28" r="22" fill="#C4C4C4" fill-opacity="0.4"/>
<path d="M43 41H18V16H43V41Z" fill="#FF5F96"/>
<path d="M43 41H30.5V16H43V41Z" fill="#FF5F96"/>
<path d="M41.5352 39.5352H19.4648V17.4648H41.5352V39.5352Z" fill="#7F1D32"/>
<path d="M41.5352 39.5352H30.5V17.4648H41.5352V39.5352Z" fill="#7F1D32"/>
<path d="M26.0205 33.1875V24.8672H27.6376V33.1875H26.0205Z" fill="#FF5F96"/>
<path d="M31.6924 33.3047C29.8896 33.3047 28.7744 31.802 28.7744 30.1172C28.7744 28.207 30.0605 26.9414 31.5166 26.9414C32.7501 26.9414 33.3875 27.7734 33.5908 28.125V24.6328H35.1611V31.3828C35.1611 31.5469 35.3915 31.8439 35.5244 31.8516V33.1875C35.2508 33.2421 35.0281 33.2695 34.8563 33.2695C33.7225 33.2695 33.8251 32.1211 33.8251 32.1211C33.5985 32.5119 32.923 33.3047 31.6924 33.3047ZM32.1025 31.9688C33.0878 31.9688 33.536 31.086 33.5908 30.9375V29.4727C33.5282 29.3009 32.9657 28.2774 32.0088 28.2774C30.9394 28.2774 30.4033 29.3382 30.4033 30.1524C30.4033 31.0472 31.0615 31.9688 32.1025 31.9688Z" fill="#FF5F96"/>
<path d="M35.1611 31.3828V24.6328H33.5908V28.125C33.3876 27.7734 32.7501 26.9414 31.5166 26.9414C31.1623 26.9414 30.8182 27.0169 30.5 27.1579V29.5291C30.6981 28.8823 31.2013 28.2773 32.0088 28.2773C32.9658 28.2773 33.5282 29.3009 33.5908 29.4726V30.9375C33.5361 31.086 33.0878 31.9687 32.1026 31.9687C31.2952 31.9687 30.7184 31.4143 30.5 30.7481V33.0539C30.8523 33.2143 31.2517 33.3046 31.6925 33.3046C32.9231 33.3046 33.5986 32.5118 33.8253 32.121C33.8253 32.121 33.7227 33.2695 34.8565 33.2695C35.0283 33.2695 35.2509 33.242 35.5245 33.1874V31.8515C35.3915 31.8438 35.1611 31.5469 35.1611 31.3828Z" fill="#FF5F96"/>
<path d="M16.8548 52.7225C20.6212 54.7251 24.7953 55.8407 29.0586 55.9842C33.3219 56.1276 37.5615 55.295 41.454 53.5501C45.3464 51.8051 48.7887 49.1938 51.5181 45.9157C54.2475 42.6375 56.1918 38.779 57.2026 34.6348C58.2133 30.4906 58.2639 26.1702 57.3504 22.0035C56.4368 17.8368 54.5833 13.9339 51.9314 10.5927C49.2795 7.25157 45.8992 4.56049 42.0487 2.72493C38.1981 0.889361 33.9791 -0.0421635 29.7136 0.00146451L29.7574 4.28614C33.3702 4.24919 36.9436 5.03816 40.2048 6.59283C43.4661 8.14749 46.3291 10.4268 48.5752 13.2566C50.8213 16.0865 52.3911 19.3921 53.1649 22.9212C53.9386 26.4502 53.8958 30.1095 53.0397 33.6195C52.1836 37.1295 50.5368 40.3975 48.2252 43.174C45.9135 45.9505 42.9979 48.1622 39.7012 49.6401C36.4044 51.118 32.8135 51.8232 29.2027 51.7017C25.5918 51.5802 22.0564 50.6353 18.8664 48.9392L16.8548 52.7225Z" fill="#3B5999"/>
<path d="M13.5577 72.732H8.65774L7.69174 75H5.81574L10.2257 65.2H12.0177L16.4417 75H14.5377L13.5577 72.732ZM12.9557 71.304L11.1077 67.02L9.27374 71.304H12.9557ZM24.7737 64.612V75H23.0937V74.034C22.8044 74.3887 22.445 74.6547 22.0157 74.832C21.5957 75.0093 21.129 75.098 20.6157 75.098C19.897 75.098 19.2484 74.9393 18.6697 74.622C18.1004 74.3047 17.6524 73.8567 17.3257 73.278C16.999 72.69 16.8357 72.018 16.8357 71.262C16.8357 70.506 16.999 69.8387 17.3257 69.26C17.6524 68.6813 18.1004 68.2333 18.6697 67.916C19.2484 67.5987 19.897 67.44 20.6157 67.44C21.1104 67.44 21.563 67.524 21.9737 67.692C22.3844 67.86 22.7344 68.112 23.0237 68.448V64.612H24.7737ZM20.8257 73.6C21.2457 73.6 21.6237 73.5067 21.9597 73.32C22.2957 73.124 22.5617 72.8487 22.7577 72.494C22.9537 72.1393 23.0517 71.7287 23.0517 71.262C23.0517 70.7953 22.9537 70.3847 22.7577 70.03C22.5617 69.6753 22.2957 69.4047 21.9597 69.218C21.6237 69.022 21.2457 68.924 20.8257 68.924C20.4057 68.924 20.0277 69.022 19.6917 69.218C19.3557 69.4047 19.0897 69.6753 18.8937 70.03C18.6977 70.3847 18.5997 70.7953 18.5997 71.262C18.5997 71.7287 18.6977 72.1393 18.8937 72.494C19.0897 72.8487 19.3557 73.124 19.6917 73.32C20.0277 73.5067 20.4057 73.6 20.8257 73.6ZM30.423 75.098C29.667 75.098 28.9857 74.9347 28.379 74.608C27.7724 74.2813 27.2964 73.8287 26.951 73.25C26.615 72.662 26.447 71.9993 26.447 71.262C26.447 70.5247 26.615 69.8667 26.951 69.288C27.2964 68.7093 27.7724 68.2567 28.379 67.93C28.9857 67.6033 29.667 67.44 30.423 67.44C31.1884 67.44 31.8744 67.6033 32.481 67.93C33.0877 68.2567 33.559 68.7093 33.895 69.288C34.2404 69.8667 34.413 70.5247 34.413 71.262C34.413 71.9993 34.2404 72.662 33.895 73.25C33.559 73.8287 33.0877 74.2813 32.481 74.608C31.8744 74.9347 31.1884 75.098 30.423 75.098ZM30.423 73.6C31.067 73.6 31.599 73.3853 32.019 72.956C32.439 72.5267 32.649 71.962 32.649 71.262C32.649 70.562 32.439 69.9973 32.019 69.568C31.599 69.1387 31.067 68.924 30.423 68.924C29.779 68.924 29.247 69.1387 28.827 69.568C28.4164 69.9973 28.211 70.562 28.211 71.262C28.211 71.962 28.4164 72.5267 28.827 72.956C29.247 73.3853 29.779 73.6 30.423 73.6ZM40.2305 67.44C40.9585 67.44 41.6071 67.5987 42.1765 67.916C42.7551 68.2333 43.2078 68.6813 43.5345 69.26C43.8611 69.8387 44.0245 70.506 44.0245 71.262C44.0245 72.018 43.8611 72.69 43.5345 73.278C43.2078 73.8567 42.7551 74.3047 42.1765 74.622C41.6071 74.9393 40.9585 75.098 40.2305 75.098C39.7171 75.098 39.2458 75.0093 38.8165 74.832C38.3965 74.6547 38.0418 74.3887 37.7525 74.034V75H36.0865V64.612H37.8365V68.434C38.1351 68.1073 38.4851 67.86 38.8865 67.692C39.2971 67.524 39.7451 67.44 40.2305 67.44ZM40.0345 73.6C40.6785 73.6 41.2058 73.3853 41.6165 72.956C42.0365 72.5267 42.2465 71.962 42.2465 71.262C42.2465 70.562 42.0365 69.9973 41.6165 69.568C41.2058 69.1387 40.6785 68.924 40.0345 68.924C39.6145 68.924 39.2365 69.022 38.9005 69.218C38.5645 69.4047 38.2985 69.6753 38.1025 70.03C37.9065 70.3847 37.8085 70.7953 37.8085 71.262C37.8085 71.7287 37.9065 72.1393 38.1025 72.494C38.2985 72.8487 38.5645 73.124 38.9005 73.32C39.2365 73.5067 39.6145 73.6 40.0345 73.6ZM52.7121 71.304C52.7121 71.4253 52.7028 71.598 52.6841 71.822H46.8181C46.9208 72.3727 47.1868 72.8113 47.6161 73.138C48.0548 73.4553 48.5961 73.614 49.2401 73.614C50.0615 73.614 50.7381 73.3433 51.2701 72.802L52.2081 73.88C51.8721 74.2813 51.4475 74.5847 50.9341 74.79C50.4208 74.9953 49.8421 75.098 49.1981 75.098C48.3768 75.098 47.6535 74.9347 47.0281 74.608C46.4028 74.2813 45.9175 73.8287 45.5721 73.25C45.2361 72.662 45.0681 71.9993 45.0681 71.262C45.0681 70.534 45.2315 69.8807 45.5581 69.302C45.8941 68.714 46.3561 68.2567 46.9441 67.93C47.5321 67.6033 48.1948 67.44 48.9321 67.44C49.6601 67.44 50.3088 67.6033 50.8781 67.93C51.4568 68.2473 51.9048 68.7 52.2221 69.288C52.5488 69.8667 52.7121 70.5387 52.7121 71.304ZM48.9321 68.84C48.3721 68.84 47.8961 69.008 47.5041 69.344C47.1215 69.6707 46.8881 70.1093 46.8041 70.66H51.0461C50.9715 70.1187 50.7428 69.68 50.3601 69.344C49.9775 69.008 49.5015 68.84 48.9321 68.84ZM1.35991 85.524H3.10991V93H1.35991V85.524ZM2.24191 84.292C1.92458 84.292 1.65858 84.194 1.44391 83.998C1.22925 83.7927 1.12191 83.5407 1.12191 83.242C1.12191 82.9433 1.22925 82.696 1.44391 82.5C1.65858 82.2947 1.92458 82.192 2.24191 82.192C2.55925 82.192 2.82525 82.29 3.03991 82.486C3.25458 82.6727 3.36191 82.9107 3.36191 83.2C3.36191 83.508 3.25458 83.7693 3.03991 83.984C2.83458 84.1893 2.56858 84.292 2.24191 84.292ZM9.64879 85.44C10.5915 85.44 11.3475 85.7153 11.9168 86.266C12.4861 86.8167 12.7708 87.6333 12.7708 88.716V93H11.0208V88.94C11.0208 88.2867 10.8668 87.7967 10.5588 87.47C10.2508 87.134 9.81212 86.966 9.24279 86.966C8.59879 86.966 8.09012 87.162 7.71679 87.554C7.34346 87.9367 7.15679 88.492 7.15679 89.22V93H5.40679V85.524H7.07279V86.49C7.36212 86.1447 7.72612 85.8833 8.16479 85.706C8.60346 85.5287 9.09812 85.44 9.64879 85.44ZM22.3811 82.612V93H20.7011V92.034C20.4118 92.3887 20.0525 92.6547 19.6231 92.832C19.2031 93.0093 18.7365 93.098 18.2231 93.098C17.5045 93.098 16.8558 92.9393 16.2771 92.622C15.7078 92.3047 15.2598 91.8567 14.9331 91.278C14.6065 90.69 14.4431 90.018 14.4431 89.262C14.4431 88.506 14.6065 87.8387 14.9331 87.26C15.2598 86.6813 15.7078 86.2333 16.2771 85.916C16.8558 85.5987 17.5045 85.44 18.2231 85.44C18.7178 85.44 19.1705 85.524 19.5811 85.692C19.9918 85.86 20.3418 86.112 20.6311 86.448V82.612H22.3811ZM18.4331 91.6C18.8531 91.6 19.2311 91.5067 19.5671 91.32C19.9031 91.124 20.1691 90.8487 20.3651 90.494C20.5611 90.1393 20.6591 89.7287 20.6591 89.262C20.6591 88.7953 20.5611 88.3847 20.3651 88.03C20.1691 87.6753 19.9031 87.4047 19.5671 87.218C19.2311 87.022 18.8531 86.924 18.4331 86.924C18.0131 86.924 17.6351 87.022 17.2991 87.218C16.9631 87.4047 16.6971 87.6753 16.5011 88.03C16.3051 88.3847 16.2071 88.7953 16.2071 89.262C16.2071 89.7287 16.3051 90.1393 16.5011 90.494C16.6971 90.8487 16.9631 91.124 17.2991 91.32C17.6351 91.5067 18.0131 91.6 18.4331 91.6ZM31.6985 89.304C31.6985 89.4253 31.6891 89.598 31.6705 89.822H25.8045C25.9071 90.3727 26.1731 90.8113 26.6025 91.138C27.0411 91.4553 27.5825 91.614 28.2265 91.614C29.0478 91.614 29.7245 91.3433 30.2565 90.802L31.1945 91.88C30.8585 92.2813 30.4338 92.5847 29.9205 92.79C29.4071 92.9953 28.8285 93.098 28.1845 93.098C27.3631 93.098 26.6398 92.9347 26.0145 92.608C25.3891 92.2813 24.9038 91.8287 24.5585 91.25C24.2225 90.662 24.0545 89.9993 24.0545 89.262C24.0545 88.534 24.2178 87.8807 24.5445 87.302C24.8805 86.714 25.3425 86.2567 25.9305 85.93C26.5185 85.6033 27.1811 85.44 27.9185 85.44C28.6465 85.44 29.2951 85.6033 29.8645 85.93C30.4431 86.2473 30.8911 86.7 31.2085 87.288C31.5351 87.8667 31.6985 88.5387 31.6985 89.304ZM27.9185 86.84C27.3585 86.84 26.8825 87.008 26.4905 87.344C26.1078 87.6707 25.8745 88.1093 25.7905 88.66H30.0325C29.9578 88.1187 29.7291 87.68 29.3465 87.344C28.9638 87.008 28.4878 86.84 27.9185 86.84ZM35.6894 93.098C35.0828 93.098 34.4901 93.0187 33.9114 92.86C33.3328 92.7013 32.8708 92.5007 32.5254 92.258L33.1974 90.928C33.5334 91.152 33.9348 91.334 34.4014 91.474C34.8774 91.6047 35.3441 91.67 35.8014 91.67C36.8468 91.67 37.3694 91.3947 37.3694 90.844C37.3694 90.5827 37.2341 90.4007 36.9634 90.298C36.7021 90.1953 36.2774 90.0973 35.6894 90.004C35.0734 89.9107 34.5694 89.8033 34.1774 89.682C33.7948 89.5607 33.4588 89.3507 33.1694 89.052C32.8894 88.744 32.7494 88.3193 32.7494 87.778C32.7494 87.0687 33.0434 86.504 33.6314 86.084C34.2288 85.6547 35.0314 85.44 36.0394 85.44C36.5528 85.44 37.0661 85.5007 37.5794 85.622C38.0928 85.734 38.5128 85.888 38.8394 86.084L38.1674 87.414C37.5328 87.0407 36.8188 86.854 36.0254 86.854C35.5121 86.854 35.1201 86.9333 34.8494 87.092C34.5881 87.2413 34.4574 87.442 34.4574 87.694C34.4574 87.974 34.5974 88.1747 34.8774 88.296C35.1668 88.408 35.6101 88.5153 36.2074 88.618C36.8048 88.7113 37.2948 88.8187 37.6774 88.94C38.0601 89.0613 38.3868 89.2667 38.6574 89.556C38.9374 89.8453 39.0774 90.256 39.0774 90.788C39.0774 91.488 38.7741 92.048 38.1674 92.468C37.5608 92.888 36.7348 93.098 35.6894 93.098ZM40.5845 85.524H42.3345V93H40.5845V85.524ZM41.4665 84.292C41.1492 84.292 40.8832 84.194 40.6685 83.998C40.4539 83.7927 40.3465 83.5407 40.3465 83.242C40.3465 82.9433 40.4539 82.696 40.6685 82.5C40.8832 82.2947 41.1492 82.192 41.4665 82.192C41.7839 82.192 42.0499 82.29 42.2645 82.486C42.4792 82.6727 42.5865 82.9107 42.5865 83.2C42.5865 83.508 42.4792 83.7693 42.2645 83.984C42.0592 84.1893 41.7932 84.292 41.4665 84.292ZM52.0514 85.524V91.866C52.0514 94.498 50.7074 95.814 48.0194 95.814C47.3007 95.814 46.6194 95.7207 45.9754 95.534C45.3314 95.3567 44.7994 95.0953 44.3794 94.75L45.1634 93.434C45.4901 93.7047 45.9007 93.9193 46.3954 94.078C46.8994 94.246 47.4081 94.33 47.9214 94.33C48.7427 94.33 49.3447 94.1433 49.7274 93.77C50.1101 93.3967 50.3014 92.8273 50.3014 92.062V91.67C50.0027 91.9967 49.6387 92.244 49.2094 92.412C48.7801 92.58 48.3087 92.664 47.7954 92.664C47.0861 92.664 46.4421 92.5147 45.8634 92.216C45.2941 91.908 44.8414 91.4787 44.5054 90.928C44.1787 90.3773 44.0154 89.7473 44.0154 89.038C44.0154 88.3287 44.1787 87.7033 44.5054 87.162C44.8414 86.6113 45.2941 86.1867 45.8634 85.888C46.4421 85.5893 47.0861 85.44 47.7954 85.44C48.3367 85.44 48.8267 85.5287 49.2654 85.706C49.7134 85.8833 50.0867 86.154 50.3854 86.518V85.524H52.0514ZM48.0614 91.18C48.7241 91.18 49.2654 90.984 49.6854 90.592C50.1147 90.1907 50.3294 89.6727 50.3294 89.038C50.3294 88.4127 50.1147 87.904 49.6854 87.512C49.2654 87.12 48.7241 86.924 48.0614 86.924C47.3894 86.924 46.8387 87.12 46.4094 87.512C45.9894 87.904 45.7794 88.4127 45.7794 89.038C45.7794 89.6727 45.9894 90.1907 46.4094 90.592C46.8387 90.984 47.3894 91.18 48.0614 91.18ZM58.5941 85.44C59.5368 85.44 60.2928 85.7153 60.8621 86.266C61.4314 86.8167 61.7161 87.6333 61.7161 88.716V93H59.9661V88.94C59.9661 88.2867 59.8121 87.7967 59.5041 87.47C59.1961 87.134 58.7574 86.966 58.1881 86.966C57.5441 86.966 57.0354 87.162 56.6621 87.554C56.2888 87.9367 56.1021 88.492 56.1021 89.22V93H54.3521V85.524H56.0181V86.49C56.3074 86.1447 56.6714 85.8833 57.1101 85.706C57.5488 85.5287 58.0434 85.44 58.5941 85.44Z" fill="#545454"/>
</svg>
