<svg width="35" height="28" viewBox="0 0 35 28" fill="none" xmlns="http://www.w3.org/2000/svg">
<path d="M11.3477 0.663574C8.00898 0.663574 5.97734 2.58453 1.02539 2.58453C0.459375 2.58453 0 3.01482 0 3.54501V23.6843C5.75723 23.9641 7.79092 21.7941 11.3477 21.7941C13.2542 21.7941 15.0849 22.9281 16.4746 24.1415V3.0097C15.0213 1.74955 13.2118 0.663574 11.3477 0.663574ZM12.373 16.9917H4.16992C3.60391 16.9917 3.14453 16.5614 3.14453 16.0312C3.14453 15.501 3.60391 15.0707 4.16992 15.0707H12.373C12.9391 15.0707 13.3984 15.501 13.3984 16.0312C13.3984 16.5614 12.9391 16.9917 12.373 16.9917ZM12.373 13.1498H4.16992C3.60391 13.1498 3.14453 12.7195 3.14453 12.1893C3.14453 11.6591 3.60391 11.2288 4.16992 11.2288H12.373C12.9391 11.2288 13.3984 11.6591 13.3984 12.1893C13.3984 12.7195 12.9391 13.1498 12.373 13.1498ZM12.373 9.30788H4.16992C3.60391 9.30788 3.14453 8.87758 3.14453 8.3474C3.14453 7.81721 3.60391 7.38692 4.16992 7.38692H12.373C12.9391 7.38692 13.3984 7.81721 13.3984 8.3474C13.3984 8.87758 12.9391 9.30788 12.373 9.30788ZM11.3477 23.715C8.38496 23.715 5.9876 25.8928 0 25.6162V26.5965C0 27.1267 0.459375 27.557 1.02539 27.557H16.4746V26.9282C15.5333 25.8454 13.2822 23.715 11.3477 23.715ZM23.6523 23.715C21.7103 23.715 19.4633 25.8447 18.5254 26.9275V27.557H33.9746C34.5406 27.557 35 27.1267 35 26.5965V25.613C28.9934 25.8886 26.6174 23.715 23.6523 23.715ZM33.9746 2.58453C29.022 2.58453 26.9924 0.663574 23.6523 0.663574C21.7889 0.663574 19.9801 1.74827 18.5254 3.0097V24.1415C19.9155 22.928 21.746 21.7941 23.6523 21.7941C27.2193 21.7941 29.2817 23.9796 35 23.6907V3.54501C35 3.01482 34.5406 2.58453 33.9746 2.58453ZM30.8301 16.9917H22.627C22.0609 16.9917 21.6016 16.5614 21.6016 16.0312C21.6016 15.501 22.0609 15.0707 22.627 15.0707H30.8301C31.3961 15.0707 31.8555 15.501 31.8555 16.0312C31.8555 16.5614 31.3961 16.9917 30.8301 16.9917ZM30.8301 13.1498H22.627C22.0609 13.1498 21.6016 12.7195 21.6016 12.1893C21.6016 11.6591 22.0609 11.2288 22.627 11.2288H30.8301C31.3961 11.2288 31.8555 11.6591 31.8555 12.1893C31.8555 12.7195 31.3961 13.1498 30.8301 13.1498ZM30.8301 9.30788H22.627C22.0609 9.30788 21.6016 8.87758 21.6016 8.3474C21.6016 7.81721 22.0609 7.38692 22.627 7.38692H30.8301C31.3961 7.38692 31.8555 7.81721 31.8555 8.3474C31.8555 8.87758 31.3961 9.30788 30.8301 9.30788Z" fill="#E5E5E5"/>
</svg>
