<svg width="35" height="30" viewBox="0 0 35 30" fill="none" xmlns="http://www.w3.org/2000/svg">
<path d="M1.75037 29.3454L4.02332 27.4676L5.47329 28.6657C5.86021 28.9852 6.48159 28.9973 6.8864 28.6948L21.3885 17.8545L22.149 18.4828C22.549 18.8133 23.1987 18.8135 23.5989 18.4828L26.4989 16.0868C26.5734 16.0252 26.634 15.9566 26.6807 15.8836C28.4527 15.7391 30.1398 15.1746 31.5332 14.2559L32.2993 14.8889C32.6995 15.2196 33.3487 15.2198 33.7492 14.8889C34.1495 14.558 34.1495 14.0216 33.7492 13.691L32.9839 13.0587C35.8745 10.0789 35.666 5.69054 32.299 2.90909C28.9462 0.139118 23.6342 -0.0490621 20.0143 2.34367L19.2488 1.71118C18.8485 1.38049 18.1991 1.38049 17.7988 1.71118C17.3983 2.0421 17.3983 2.5784 17.7988 2.90909L18.5646 3.54202C17.4527 4.69316 16.7694 6.0872 16.5948 7.55116C16.5048 7.59043 16.4217 7.64073 16.3486 7.70118L13.4486 10.097C13.0481 10.4279 13.0481 10.9642 13.4486 11.2949L14.2089 11.9232L1.08788 23.9043C0.721512 24.2392 0.736732 24.7525 1.12312 25.0718L2.57336 26.2697L0.300407 28.1475C-0.100136 28.4784 -0.100136 29.0147 0.300407 29.3454C0.700683 29.6763 1.34983 29.6763 1.75037 29.3454ZM30.849 4.10723C33.42 6.23126 33.6125 9.54967 31.5225 11.8513L21.4755 3.55085C24.259 1.82568 28.2762 1.98143 30.849 4.10723ZM30.0714 13.0483C28.8161 13.8222 27.2791 14.2396 25.6967 14.2259L18.601 8.36389C18.5844 7.05634 19.0896 5.78651 20.0266 4.74986L30.0714 13.0483ZM17.0738 9.49804L24.3239 15.4878L22.8739 16.686L15.6236 10.696L17.0738 9.49804ZM9.27871 24.6217L6.01803 21.9279L15.6607 13.1227L19.9366 16.6551L9.27871 24.6217ZM4.64043 23.1856L7.75638 25.7599L6.23379 26.8978L3.26309 24.4435L4.64043 23.1856Z" fill="#E5E5E5"/>
</svg>
