<svg width="71" height="79" viewBox="0 0 71 79" fill="none" xmlns="http://www.w3.org/2000/svg">
<circle cx="34" cy="28" r="22" fill="#C4C4C4" fill-opacity="0.4"/>
<path d="M47 41H22V16H47V41Z" fill="#FF80E4"/>
<path d="M47 41H34.5V16H47V41Z" fill="#FF80E4"/>
<path d="M45.5352 39.5352H23.4648V17.4648H45.5352V39.5352Z" fill="#7F1363"/>
<path d="M45.5352 39.5352H34.5V17.4648H45.5352V39.5352Z" fill="#7F1363"/>
<path d="M29.1514 24.8672L31.2256 27.9609L33.2881 24.8672H35.0342L32.0693 29.0859L34.9404 33.1875H33.1943L31.2256 30.2109L29.2452 33.1875H27.4874L30.3584 29.0859L27.3936 24.8672H29.1514Z" fill="#FF80E4"/>
<path d="M37.9053 33.3047C36.1025 33.3047 34.9873 31.802 34.9873 30.1172C34.9873 28.207 36.2734 26.9414 37.7295 26.9414C38.963 26.9414 39.6004 27.7734 39.8037 28.125V24.6328H41.374V31.3828C41.374 31.5469 41.6043 31.8439 41.7373 31.8516V33.1875C41.4637 33.2421 41.241 33.2695 41.0692 33.2695C39.9354 33.2695 40.038 32.1211 40.038 32.1211C39.8114 32.5119 39.1359 33.3047 37.9053 33.3047ZM38.3155 31.9688C39.3008 31.9688 39.749 31.086 39.8037 30.9375V29.4727C39.7411 29.3009 39.1787 28.2774 38.2217 28.2774C37.1523 28.2774 36.6163 29.3382 36.6163 30.1524C36.6163 31.0472 37.2744 31.9688 38.3155 31.9688Z" fill="#FF80E4"/>
<path d="M34.5 24.8672V25.6274L35.0342 24.8672H34.5Z" fill="#FF80E4"/>
<path d="M34.5 33.1874H34.9405L34.5 32.5581V33.1874Z" fill="#FF80E4"/>
<path d="M8.62338 16.1667C6.03839 21.7102 5.33974 27.9477 6.63424 33.9258C7.92873 39.9039 11.1451 45.2936 15.7918 49.2712C20.4385 53.2488 26.2599 55.5954 32.3661 55.9523C38.4723 56.3092 44.5274 54.6568 49.6059 51.2477C54.6843 47.8386 58.5068 42.8603 60.489 37.0738C62.4712 31.2873 62.504 25.0109 60.5825 19.2039C58.661 13.3969 54.8908 8.37892 49.8483 4.91685C44.8058 1.45478 38.7683 -0.260865 32.6587 0.0321455L32.864 4.31213C38.0386 4.06396 43.1521 5.51706 47.423 8.44932C51.6938 11.3816 54.8871 15.6317 56.5145 20.55C58.142 25.4683 58.1142 30.7842 56.4353 35.6852C54.7565 40.5862 51.519 44.8027 47.2177 47.6901C42.9163 50.5775 37.7879 51.977 32.6161 51.6747C27.4444 51.3724 22.5139 49.3849 18.5783 46.016C14.6427 42.6471 11.9185 38.0822 10.8221 33.019C9.72569 27.9557 10.3174 22.6728 12.5068 17.9776L8.62338 16.1667Z" fill="#3B5999"/>
<path d="M8.11048 72.732H3.21048L2.24448 75H0.368477L4.77848 65.2H6.57048L10.9945 75H9.09048L8.11048 72.732ZM7.50848 71.304L5.66048 67.02L3.82648 71.304H7.50848ZM19.3264 64.612V75H17.6464V74.034C17.3571 74.3887 16.9978 74.6547 16.5684 74.832C16.1484 75.0093 15.6818 75.098 15.1684 75.098C14.4498 75.098 13.8011 74.9393 13.2224 74.622C12.6531 74.3047 12.2051 73.8567 11.8784 73.278C11.5518 72.69 11.3884 72.018 11.3884 71.262C11.3884 70.506 11.5518 69.8387 11.8784 69.26C12.2051 68.6813 12.6531 68.2333 13.2224 67.916C13.8011 67.5987 14.4498 67.44 15.1684 67.44C15.6631 67.44 16.1158 67.524 16.5264 67.692C16.9371 67.86 17.2871 68.112 17.5764 68.448V64.612H19.3264ZM15.3784 73.6C15.7984 73.6 16.1764 73.5067 16.5124 73.32C16.8484 73.124 17.1144 72.8487 17.3104 72.494C17.5064 72.1393 17.6044 71.7287 17.6044 71.262C17.6044 70.7953 17.5064 70.3847 17.3104 70.03C17.1144 69.6753 16.8484 69.4047 16.5124 69.218C16.1764 69.022 15.7984 68.924 15.3784 68.924C14.9584 68.924 14.5804 69.022 14.2444 69.218C13.9084 69.4047 13.6424 69.6753 13.4464 70.03C13.2504 70.3847 13.1524 70.7953 13.1524 71.262C13.1524 71.7287 13.2504 72.1393 13.4464 72.494C13.6424 72.8487 13.9084 73.124 14.2444 73.32C14.5804 73.5067 14.9584 73.6 15.3784 73.6ZM24.9758 75.098C24.2198 75.098 23.5384 74.9347 22.9318 74.608C22.3251 74.2813 21.8491 73.8287 21.5038 73.25C21.1678 72.662 20.9998 71.9993 20.9998 71.262C20.9998 70.5247 21.1678 69.8667 21.5038 69.288C21.8491 68.7093 22.3251 68.2567 22.9318 67.93C23.5384 67.6033 24.2198 67.44 24.9758 67.44C25.7411 67.44 26.4271 67.6033 27.0338 67.93C27.6404 68.2567 28.1118 68.7093 28.4478 69.288C28.7931 69.8667 28.9658 70.5247 28.9658 71.262C28.9658 71.9993 28.7931 72.662 28.4478 73.25C28.1118 73.8287 27.6404 74.2813 27.0338 74.608C26.4271 74.9347 25.7411 75.098 24.9758 75.098ZM24.9758 73.6C25.6198 73.6 26.1518 73.3853 26.5718 72.956C26.9918 72.5267 27.2018 71.962 27.2018 71.262C27.2018 70.562 26.9918 69.9973 26.5718 69.568C26.1518 69.1387 25.6198 68.924 24.9758 68.924C24.3318 68.924 23.7998 69.1387 23.3798 69.568C22.9691 69.9973 22.7638 70.562 22.7638 71.262C22.7638 71.962 22.9691 72.5267 23.3798 72.956C23.7998 73.3853 24.3318 73.6 24.9758 73.6ZM34.7832 67.44C35.5112 67.44 36.1599 67.5987 36.7292 67.916C37.3079 68.2333 37.7605 68.6813 38.0872 69.26C38.4139 69.8387 38.5772 70.506 38.5772 71.262C38.5772 72.018 38.4139 72.69 38.0872 73.278C37.7605 73.8567 37.3079 74.3047 36.7292 74.622C36.1599 74.9393 35.5112 75.098 34.7832 75.098C34.2699 75.098 33.7985 75.0093 33.3692 74.832C32.9492 74.6547 32.5945 74.3887 32.3052 74.034V75H30.6392V64.612H32.3892V68.434C32.6879 68.1073 33.0379 67.86 33.4392 67.692C33.8499 67.524 34.2979 67.44 34.7832 67.44ZM34.5872 73.6C35.2312 73.6 35.7585 73.3853 36.1692 72.956C36.5892 72.5267 36.7992 71.962 36.7992 71.262C36.7992 70.562 36.5892 69.9973 36.1692 69.568C35.7585 69.1387 35.2312 68.924 34.5872 68.924C34.1672 68.924 33.7892 69.022 33.4532 69.218C33.1172 69.4047 32.8512 69.6753 32.6552 70.03C32.4592 70.3847 32.3612 70.7953 32.3612 71.262C32.3612 71.7287 32.4592 72.1393 32.6552 72.494C32.8512 72.8487 33.1172 73.124 33.4532 73.32C33.7892 73.5067 34.1672 73.6 34.5872 73.6ZM47.2649 71.304C47.2649 71.4253 47.2555 71.598 47.2369 71.822H41.3709C41.4735 72.3727 41.7395 72.8113 42.1689 73.138C42.6075 73.4553 43.1489 73.614 43.7929 73.614C44.6142 73.614 45.2909 73.3433 45.8229 72.802L46.7609 73.88C46.4249 74.2813 46.0002 74.5847 45.4869 74.79C44.9735 74.9953 44.3949 75.098 43.7509 75.098C42.9295 75.098 42.2062 74.9347 41.5809 74.608C40.9555 74.2813 40.4702 73.8287 40.1249 73.25C39.7889 72.662 39.6209 71.9993 39.6209 71.262C39.6209 70.534 39.7842 69.8807 40.1109 69.302C40.4469 68.714 40.9089 68.2567 41.4969 67.93C42.0849 67.6033 42.7475 67.44 43.4849 67.44C44.2129 67.44 44.8615 67.6033 45.4309 67.93C46.0095 68.2473 46.4575 68.7 46.7749 69.288C47.1015 69.8667 47.2649 70.5387 47.2649 71.304ZM43.4849 68.84C42.9249 68.84 42.4489 69.008 42.0569 69.344C41.6742 69.6707 41.4409 70.1093 41.3569 70.66H45.5989C45.5242 70.1187 45.2955 69.68 44.9129 69.344C44.5302 69.008 44.0542 68.84 43.4849 68.84ZM59.157 75L56.497 71.276L53.865 75H51.793L55.433 70.002L51.989 65.2H54.047L56.553 68.686L59.031 65.2H61.005L57.575 69.932L61.257 75H59.157ZM69.4202 64.612V75H67.7402V74.034C67.4509 74.3887 67.0915 74.6547 66.6622 74.832C66.2422 75.0093 65.7755 75.098 65.2622 75.098C64.5435 75.098 63.8949 74.9393 63.3162 74.622C62.7469 74.3047 62.2989 73.8567 61.9722 73.278C61.6455 72.69 61.4822 72.018 61.4822 71.262C61.4822 70.506 61.6455 69.8387 61.9722 69.26C62.2989 68.6813 62.7469 68.2333 63.3162 67.916C63.8949 67.5987 64.5435 67.44 65.2622 67.44C65.7569 67.44 66.2095 67.524 66.6202 67.692C67.0309 67.86 67.3809 68.112 67.6702 68.448V64.612H69.4202ZM65.4722 73.6C65.8922 73.6 66.2702 73.5067 66.6062 73.32C66.9422 73.124 67.2082 72.8487 67.4042 72.494C67.6002 72.1393 67.6982 71.7287 67.6982 71.262C67.6982 70.7953 67.6002 70.3847 67.4042 70.03C67.2082 69.6753 66.9422 69.4047 66.6062 69.218C66.2702 69.022 65.8922 68.924 65.4722 68.924C65.0522 68.924 64.6742 69.022 64.3382 69.218C64.0022 69.4047 63.7362 69.6753 63.5402 70.03C63.3442 70.3847 63.2462 70.7953 63.2462 71.262C63.2462 71.7287 63.3442 72.1393 63.5402 72.494C63.7362 72.8487 64.0022 73.124 64.3382 73.32C64.6742 73.5067 65.0522 73.6 65.4722 73.6Z" fill="#545454"/>
</svg>
